<?xml version="1.0" encoding="UTF-8"?>
<svg version="1.1" xmlns="http://www.w3.org/2000/svg" width="1080" height="1080">
<path d="M0 0 C356.4 0 712.8 0 1080 0 C1080 356.4 1080 712.8 1080 1080 C723.6 1080 367.2 1080 0 1080 C0 723.6 0 367.2 0 0 Z " fill="#FEFEFE" transform="translate(0,0)"/>
<path d="M0 0 C24.42 0 48.84 0 74 0 C74 91.74 74 183.48 74 278 C85.82372298 278.20674461 85.82372298 278.20674461 93.49707031 272.69628906 C93.97241211 272.11588867 94.44775391 271.53548828 94.9375 270.9375 C95.47342773 270.34549805 96.00935547 269.75349609 96.56152344 269.14355469 C98.0771041 267.45660746 99.54214358 265.73680603 101 264 C102.25 262.58333333 103.5 261.16666667 104.75 259.75 C105.27078125 259.13640625 105.7915625 258.5228125 106.328125 257.890625 C109.0102136 254.85760892 111.92733249 252.06491566 114.80859375 249.22265625 C117.42101068 246.5729856 119.83302621 243.78827197 122.25390625 240.96484375 C124.72603418 238.18300852 127.38430547 235.60624049 130.03515625 232.99609375 C131.92230744 231.07892823 133.68685375 229.10424678 135.4375 227.0625 C138.71130653 223.25175937 142.23363971 219.74921835 145.80859375 216.22265625 C148.42101068 213.5729856 150.83302621 210.78827197 153.25390625 207.96484375 C155.72481389 205.18438168 158.3816694 202.60881782 161.03125 200 C162.93986455 198.06108998 164.72710552 196.06300449 166.5 194 C168.89676588 191.21103607 171.37959391 188.58009215 174 186 C176.59982183 183.44009866 179.06268398 180.8322046 181.4375 178.0625 C184.71130653 174.25175937 188.23363971 170.74921835 191.80859375 167.22265625 C194.42101068 164.5729856 196.83302621 161.78827197 199.25390625 158.96484375 C201.72603418 156.18300852 204.38430547 153.60624049 207.03515625 150.99609375 C208.92230744 149.07892823 210.68685375 147.10424678 212.4375 145.0625 C215.71130653 141.25175937 219.23363971 137.74921835 222.80859375 134.22265625 C225.42101068 131.5729856 227.83302621 128.78827197 230.25390625 125.96484375 C232.72603418 123.18300852 235.38430547 120.60624049 238.03515625 117.99609375 C239.92230744 116.07892823 241.68685375 114.10424678 243.4375 112.0625 C246.71130653 108.25175937 250.23363971 104.74921835 253.80859375 101.22265625 C256.42101068 98.5729856 258.83302621 95.78827197 261.25390625 92.96484375 C263.72603418 90.18300852 266.38430547 87.60624049 269.03515625 84.99609375 C270.92230744 83.07892823 272.68685375 81.10424678 274.4375 79.0625 C277.71130653 75.25175937 281.23363971 71.74921835 284.80859375 68.22265625 C287.42101068 65.5729856 289.83302621 62.78827197 292.25390625 59.96484375 C294.72481389 57.18438168 297.3816694 54.60881782 300.03125 52 C301.93986455 50.06108998 303.72710552 48.06300449 305.5 46 C307.89676588 43.21103607 310.37959391 40.58009215 313 38 C315.59982183 35.44009866 318.06268398 32.8322046 320.4375 30.0625 C323.71010493 26.25315804 327.23100437 22.75178891 330.8046875 19.2265625 C333.43240687 16.56143787 335.86410916 13.76389117 338.296875 10.921875 C340.61703975 8.30370744 343.09968395 5.87250202 345.6171875 3.4453125 C347.10854485 2.02890223 347.10854485 2.02890223 348 0 C375.39 0 402.78 0 431 0 C431 12 431 12 428.8046875 14.94921875 C427.41636719 15.96435547 427.41636719 15.96435547 426 17 C424.37365981 18.60280794 422.74866944 20.20698661 421.125 21.8125 C420.32320312 22.60269531 419.52140625 23.39289063 418.6953125 24.20703125 C415.9777612 27.02304455 413.41984619 29.93671776 410.85644531 32.8918457 C407.76216535 36.40566836 404.53487224 39.79150006 401.3125 43.1875 C396.47257598 48.30851663 391.64524503 53.43896242 386.875 58.625 C382.58343782 63.29063093 378.26757582 67.93258664 373.9375 72.5625 C369.76874495 77.02117662 365.61830175 81.49466255 361.5 86 C356.78872712 91.15403568 352.03100608 96.2629371 347.26171875 101.36328125 C343.49298079 105.39533714 339.73912081 109.44047252 336 113.5 C331.68516176 118.18408396 327.34871907 122.84735735 323 127.5 C316.6382591 134.30732385 310.31232065 141.14686473 304 148 C297.09610561 155.4953927 290.16989476 162.96879128 283.21142578 170.41357422 C278.97002318 174.95384801 274.75057412 179.51372815 270.54125977 184.08374023 C266.69119951 188.26010919 262.81711262 192.41358672 258.9375 196.5625 C254.76878397 201.02121366 250.61830224 205.49466201 246.5 210 C241.78872712 215.15403568 237.03100608 220.2629371 232.26171875 225.36328125 C228.49298079 229.39533714 224.73912081 233.44047252 221 237.5 C216.68516176 242.18408396 212.34871907 246.84735735 208 251.5 C201.6382591 258.30732385 195.31232065 265.14686473 189 272 C187.04222204 274.12551262 185.08393696 276.25055549 183.125 278.375 C182.39651855 279.16535645 182.39651855 279.16535645 181.65332031 279.97167969 C178.8947642 282.96056534 176.12497754 285.93844115 173.34375 288.90625 C172.72483887 289.56705566 172.10592773 290.22786133 171.46826172 290.90869141 C170.27852134 292.17785286 169.08753024 293.44584355 167.89501953 294.71240234 C164.14536517 298.71225313 160.53351379 302.80804764 157 307 C160.60717182 314.59957558 167.37294835 320.45132718 173.3203125 326.2890625 C175.75191912 328.76590831 177.98526307 331.40253749 180.25 334.03125 C181.93798286 335.93023071 183.68769734 337.72005988 185.5 339.5 C187.93389732 341.89053167 190.21355559 344.35046262 192.4375 346.9375 C194.85617779 349.74576347 197.35899683 352.39970593 200 355 C203.25029983 358.20029522 206.24724245 361.54224576 209.21875 365 C211.0742521 367.08337078 213.01223101 369.04281207 215 371 C218.25029983 374.20029522 221.24724245 377.54224576 224.21875 381 C226.0742521 383.08337078 228.01223101 385.04281207 230 387 C233.25029983 390.20029522 236.24724245 393.54224576 239.21875 397 C241.70257428 399.78885533 244.36711437 402.37686983 247.02734375 404.99609375 C249.57337829 407.58246151 251.92021557 410.3153528 254.28515625 413.06640625 C255.96004299 414.95494597 257.69947587 416.73155648 259.5 418.5 C261.93389732 420.89053167 264.21355559 423.35046262 266.4375 425.9375 C268.85617779 428.74576347 271.35899683 431.39970593 274 434 C277.25029983 437.20029522 280.24724245 440.54224576 283.21875 444 C285.0742521 446.08337078 287.01223101 448.04281207 289 450 C292.25029983 453.20029522 295.24724245 456.54224576 298.21875 460 C300.0742521 462.08337078 302.01223101 464.04281207 304 466 C307.25029983 469.20029522 310.24724245 472.54224576 313.21875 476 C315.70257428 478.78885533 318.36711437 481.37686983 321.02734375 483.99609375 C323.57337829 486.58246151 325.92021557 489.3153528 328.28515625 492.06640625 C329.96004299 493.95494597 331.69947587 495.73155648 333.5 497.5 C335.93389732 499.89053167 338.21355559 502.35046262 340.4375 504.9375 C342.85617779 507.74576347 345.35899683 510.39970593 348 513 C351.25029983 516.20029522 354.24724245 519.54224576 357.21875 523 C359.0742521 525.08337078 361.01223101 527.04281207 363 529 C366.25029983 532.20029522 369.24724245 535.54224576 372.21875 539 C374.0742521 541.08337078 376.01223101 543.04281207 378 545 C381.25029983 548.20029522 384.24724245 551.54224576 387.21875 555 C389.70257428 557.78885533 392.36711437 560.37686983 395.02734375 562.99609375 C397.57337829 565.58246151 399.92021557 568.3153528 402.28515625 571.06640625 C403.96004299 572.95494597 405.69947587 574.73155648 407.5 576.5 C409.93389732 578.89053167 412.21355559 581.35046262 414.4375 583.9375 C416.85617779 586.74576347 419.35899683 589.39970593 422 592 C425.25029983 595.20029522 428.24724245 598.54224576 431.21875 602 C433.69890795 604.78473876 436.35920566 607.36914046 439.015625 609.984375 C441.58986703 612.59915628 443.98168182 615.34741262 446.359375 618.140625 C447.98009856 620.07505831 447.98009856 620.07505831 450.08691406 621.72558594 C452.59940581 624.71261671 452.41712735 626.40607097 452.25 630.25 C452.21390625 631.32765625 452.1778125 632.4053125 452.140625 633.515625 C452.09421875 634.33546875 452.0478125 635.1553125 452 636 C440.90810868 636.16236962 429.8165012 636.28666014 418.72366238 636.3626852 C413.57242723 636.39917861 408.42200661 636.44865749 403.27124023 636.52807617 C398.29801015 636.60427537 393.32556219 636.64601957 388.35179329 636.6641407 C386.45672355 636.67704993 384.56169544 636.70225991 382.66695976 636.7401104 C367.83742288 637.0245054 367.83742288 637.0245054 363.35012817 634.52249146 C361.56125725 632.76672565 360.31332694 631.12368168 359 629 C357.97429555 627.77808786 356.93395957 626.56820724 355.875 625.375 C355.30523438 624.71242188 354.73546875 624.04984375 354.1484375 623.3671875 C351.36854721 620.30425384 348.44081152 617.4075914 345.5 614.5 C341.46699707 610.51224816 337.60597523 606.48505077 333.9375 602.15625 C331.23969415 599.15385317 328.36956181 596.33739183 325.5 593.5 C321.4670189 589.51223169 317.60597538 585.48505095 313.9375 581.15625 C311.23969415 578.15385317 308.36956181 575.33739183 305.5 572.5 C301.4670189 568.51223169 297.60597538 564.48505095 293.9375 560.15625 C290.6963345 556.54914646 287.20737621 553.18821105 283.76000977 549.77954102 C280.29613554 546.33963479 277.02875066 542.8144615 273.87109375 539.08984375 C271.3561655 536.28089466 268.68164678 533.64891383 266 531 C262.73617703 527.77601619 259.53169881 524.56482179 256.5625 521.0625 C253.39990018 517.34042307 249.97029304 513.93133928 246.5 510.5 C242.46701526 506.51223443 238.60597535 502.48505092 234.9375 498.15625 C232.23969415 495.15385317 229.36956181 492.33739183 226.5 489.5 C222.4670189 485.51223169 218.60597538 481.48505095 214.9375 477.15625 C212.23969415 474.15385317 209.36956181 471.33739183 206.5 468.5 C202.4670189 464.51223169 198.60597538 460.48505095 194.9375 456.15625 C191.6963345 452.54914646 188.20737621 449.18821105 184.76000977 445.77954102 C181.29613554 442.33963479 178.02875066 438.8144615 174.87109375 435.08984375 C172.3561655 432.28089466 169.68164678 429.64891383 167 427 C163.73617703 423.77601619 160.53169881 420.56482179 157.5625 417.0625 C154.39990018 413.34042307 150.97029304 409.93133928 147.5 406.5 C143.46701526 402.51223443 139.60597535 398.48505092 135.9375 394.15625 C133.23969415 391.15385317 130.36956181 388.33739183 127.5 385.5 C123.4670189 381.51223169 119.60597538 377.48505095 115.9375 373.15625 C112.70047811 369.55375789 109.21630135 366.19688892 105.77319336 362.79272461 C102.75992643 359.80043474 99.83677195 356.78164407 97.0625 353.5625 C96.52882813 352.9540625 95.99515625 352.345625 95.4453125 351.71875 C94 350 94 350 92.7421875 348.21875 C91.27704607 346.21117941 91.27704607 346.21117941 88 344 C83.38 343.67 78.76 343.34 74 343 C74 439.69 74 536.38 74 636 C49.58 636 25.16 636 0 636 C0 426.12 0 216.24 0 0 Z " fill="#000000" transform="translate(356,238)"/>
</svg>
